# xmcd
#
# Track frame offsets:
#	150
#	15912
#	27082
#	46196
#	62295
#	78759
#	92495
#	109936
#	124938
#	138502
#	154274
#	169789
#	193592
#	210765
#	227328
#	246852
#	259039
#
# Disc length: 3720 seconds
#
# Revision: 0
# Processed by: cddbd v1.5.1PL0 Copyright (c) Steve Scherf et al.
# Submitted via: audiograbber 1.81.02
#
DISCID=c60e8611
DTITLE=SULA MIRANDA - ME CHAMA
DYEAR=2004
DGENRE=Country
TTITLE0=Anuncio de Jornal
TTITLE1=A Caroneira
TTITLE2=Caminhoneiro do Amor
TTITLE3=Caso de Policia
TTITLE4=Coisinha Linda
TTITLE5=Com o Pe na Estrada
TTITLE6=Estrada Afora
TTITLE7=Estrela Guia
TTITLE8=Filme Triste
TTITLE9=Fogueira
TTITLE10=Guardioes da Estrada
TTITLE11=Lobo Amante
TTITLE12=Me Chama
TTITLE13=Me Liga, Me Grita, Me Chama
TTITLE14=Rumo Certo
TTITLE15=Seu Olhar
TTITLE16=Viola Enluarada
EXTD=kiroiva@hotmail.com
EXTT0=
EXTT1=
EXTT2=
EXTT3=
EXTT4=
EXTT5=
EXTT6=
EXTT7=
EXTT8=
EXTT9=
EXTT10=
EXTT11=
EXTT12=
EXTT13=
EXTT14=
EXTT15=
EXTT16=
PLAYORDER=
